<svg width="16" height="12" viewBox="0 0 16 12" fill="none" xmlns="http://www.w3.org/2000/svg">
<path d="M10.8125 7.875C10.6633 7.875 10.5202 7.93427 10.4148 8.03976C10.3093 8.14525 10.25 8.28832 10.25 8.4375C10.25 8.58669 10.3093 8.72976 10.4148 8.83525C10.5202 8.94074 10.6633 9 10.8125 9H12.6875C12.8367 9 12.9798 8.94074 13.0852 8.83525C13.1907 8.72976 13.25 8.58669 13.25 8.4375C13.25 8.28832 13.1907 8.14525 13.0852 8.03976C12.9798 7.93427 12.8367 7.875 12.6875 7.875H10.8125ZM0.5 3.1875C0.5 2.54104 0.756807 1.92105 1.21393 1.46393C1.67105 1.00681 2.29103 0.75 2.9375 0.75H13.0625C13.3826 0.75 13.6996 0.813048 13.9953 0.935544C14.291 1.05804 14.5597 1.23758 14.7861 1.46393C15.0124 1.69027 15.192 1.95898 15.3145 2.25471C15.437 2.55044 15.5 2.8674 15.5 3.1875V8.8125C15.5 9.1326 15.437 9.44956 15.3145 9.74529C15.192 10.041 15.0124 10.3097 14.7861 10.5361C14.5597 10.7624 14.291 10.942 13.9953 11.0645C13.6996 11.187 13.3826 11.25 13.0625 11.25H2.9375C2.29103 11.25 1.67105 10.9932 1.21393 10.5361C0.756807 10.079 0.5 9.45897 0.5 8.8125V3.1875ZM14.375 4.125V3.1875C14.375 2.8394 14.2367 2.50556 13.9906 2.25942C13.7444 2.01328 13.4106 1.875 13.0625 1.875H2.9375C2.5894 1.875 2.25556 2.01328 2.00942 2.25942C1.76328 2.50556 1.625 2.8394 1.625 3.1875V4.125H14.375ZM1.625 5.25V8.8125C1.625 9.537 2.213 10.125 2.9375 10.125H13.0625C13.4106 10.125 13.7444 9.98672 13.9906 9.74058C14.2367 9.49444 14.375 9.1606 14.375 8.8125V5.25H1.625Z" fill="#A9A9A9"/>
</svg>
